<svg width="302" height="173" viewBox="0 0 302 173" fill="none" xmlns="http://www.w3.org/2000/svg">
<path d="M42 4L300.981 73.5046L274.323 172.995L42 4Z" fill="#FFA3A3"/>
<circle cx="28.0726" cy="2.44949" r="2" transform="rotate(15 28.0726 2.44949)" fill="#222222"/>
<circle cx="22.3786" cy="23.6999" r="2" transform="rotate(15 22.3786 23.6999)" fill="#222222"/>
<circle cx="16.6845" cy="44.9502" r="2" transform="rotate(15 16.6845 44.9502)" fill="#222222"/>
<circle cx="10.9906" cy="66.2006" r="2" transform="rotate(15 10.9906 66.2006)" fill="#222222"/>
<circle cx="5.29654" cy="87.451" r="2" transform="rotate(15 5.29654 87.451)" fill="#222222"/>
<circle cx="34.8849" cy="15.6629" r="2" transform="rotate(15 34.8849 15.6629)" fill="#222222"/>
<circle cx="29.1908" cy="36.9132" r="2" transform="rotate(15 29.1908 36.9132)" fill="#222222"/>
<circle cx="23.4968" cy="58.1636" r="2" transform="rotate(15 23.4968 58.1636)" fill="#222222"/>
<circle cx="17.8028" cy="79.414" r="2" transform="rotate(15 17.8028 79.414)" fill="#222222"/>
<circle cx="12.1088" cy="100.664" r="2" transform="rotate(15 12.1088 100.664)" fill="#222222"/>
<circle cx="54.2033" cy="20.8393" r="2" transform="rotate(15 54.2033 20.8393)" fill="#222222"/>
<circle cx="48.5094" cy="42.0896" r="2" transform="rotate(15 48.5094 42.0896)" fill="#222222"/>
<circle cx="42.8153" cy="63.34" r="2" transform="rotate(15 42.8153 63.34)" fill="#222222"/>
<circle cx="37.1213" cy="84.5904" r="2" transform="rotate(15 37.1213 84.5904)" fill="#222222"/>
<circle cx="31.4273" cy="105.841" r="2" transform="rotate(15 31.4273 105.841)" fill="#222222"/>
<circle cx="73.5219" cy="26.0157" r="2" transform="rotate(15 73.5219 26.0157)" fill="#222222"/>
<circle cx="67.8279" cy="47.266" r="2" transform="rotate(15 67.8279 47.266)" fill="#222222"/>
<circle cx="62.1338" cy="68.5164" r="2" transform="rotate(15 62.1338 68.5164)" fill="#222222"/>
<circle cx="56.4398" cy="89.7668" r="2" transform="rotate(15 56.4398 89.7668)" fill="#222222"/>
<circle cx="50.7458" cy="111.017" r="2" transform="rotate(15 50.7458 111.017)" fill="#222222"/>
<circle cx="92.8404" cy="31.192" r="2" transform="rotate(15 92.8404 31.192)" fill="#222222"/>
<circle cx="87.1464" cy="52.4424" r="2" transform="rotate(15 87.1464 52.4424)" fill="#222222"/>
<circle cx="81.4524" cy="73.6928" r="2" transform="rotate(15 81.4524 73.6928)" fill="#222222"/>
<circle cx="75.7583" cy="94.9431" r="2" transform="rotate(15 75.7583 94.9431)" fill="#222222"/>
<circle cx="70.0643" cy="116.194" r="2" transform="rotate(15 70.0643 116.194)" fill="#222222"/>
<circle cx="112.159" cy="36.3684" r="2" transform="rotate(15 112.159 36.3684)" fill="#222222"/>
<circle cx="106.465" cy="57.6188" r="2" transform="rotate(15 106.465 57.6188)" fill="#222222"/>
<circle cx="100.771" cy="78.8692" r="2" transform="rotate(15 100.771 78.8692)" fill="#222222"/>
<circle cx="95.0769" cy="100.12" r="2" transform="rotate(15 95.0769 100.12)" fill="#222222"/>
<circle cx="89.3828" cy="121.37" r="2" transform="rotate(15 89.3828 121.37)" fill="#222222"/>
<circle cx="131.477" cy="41.5448" r="2" transform="rotate(15 131.477 41.5448)" fill="#222222"/>
<circle cx="125.783" cy="62.7952" r="2" transform="rotate(15 125.783 62.7952)" fill="#222222"/>
<circle cx="120.089" cy="84.0456" r="2" transform="rotate(15 120.089 84.0456)" fill="#222222"/>
<circle cx="114.395" cy="105.296" r="2" transform="rotate(15 114.395 105.296)" fill="#222222"/>
<circle cx="108.701" cy="126.546" r="2" transform="rotate(15 108.701 126.546)" fill="#222222"/>
<circle cx="150.796" cy="46.7211" r="2" transform="rotate(15 150.796 46.7211)" fill="#222222"/>
<circle cx="145.102" cy="67.9715" r="2" transform="rotate(15 145.102 67.9715)" fill="#222222"/>
<circle cx="139.408" cy="89.2218" r="2" transform="rotate(15 139.408 89.2218)" fill="#222222"/>
<circle cx="133.714" cy="110.472" r="2" transform="rotate(15 133.714 110.472)" fill="#222222"/>
<circle cx="128.02" cy="131.723" r="2" transform="rotate(15 128.02 131.723)" fill="#222222"/>
<circle cx="170.114" cy="51.8975" r="2" transform="rotate(15 170.114 51.8975)" fill="#222222"/>
<circle cx="164.42" cy="73.1479" r="2" transform="rotate(15 164.42 73.1479)" fill="#222222"/>
<circle cx="158.726" cy="94.3982" r="2" transform="rotate(15 158.726 94.3982)" fill="#222222"/>
<circle cx="153.032" cy="115.649" r="2" transform="rotate(15 153.032 115.649)" fill="#222222"/>
<circle cx="147.338" cy="136.899" r="2" transform="rotate(15 147.338 136.899)" fill="#222222"/>
<circle cx="189.433" cy="57.0739" r="2" transform="rotate(15 189.433 57.0739)" fill="#222222"/>
<circle cx="183.739" cy="78.3242" r="2" transform="rotate(15 183.739 78.3242)" fill="#222222"/>
<circle cx="178.045" cy="99.5746" r="2" transform="rotate(15 178.045 99.5746)" fill="#222222"/>
<circle cx="172.351" cy="120.825" r="2" transform="rotate(15 172.351 120.825)" fill="#222222"/>
<circle cx="166.657" cy="142.075" r="2" transform="rotate(15 166.657 142.075)" fill="#222222"/>
<circle cx="208.751" cy="62.2503" r="2" transform="rotate(15 208.751 62.2503)" fill="#222222"/>
<circle cx="203.057" cy="83.5006" r="2" transform="rotate(15 203.057 83.5006)" fill="#222222"/>
<circle cx="197.363" cy="104.751" r="2" transform="rotate(15 197.363 104.751)" fill="#222222"/>
<circle cx="191.669" cy="126.001" r="2" transform="rotate(15 191.669 126.001)" fill="#222222"/>
<circle cx="185.975" cy="147.252" r="2" transform="rotate(15 185.975 147.252)" fill="#222222"/>
<circle cx="228.07" cy="67.4267" r="2" transform="rotate(15 228.07 67.4267)" fill="#222222"/>
<circle cx="222.376" cy="88.677" r="2" transform="rotate(15 222.376 88.677)" fill="#222222"/>
<circle cx="216.682" cy="109.927" r="2" transform="rotate(15 216.682 109.927)" fill="#222222"/>
<circle cx="210.988" cy="131.178" r="2" transform="rotate(15 210.988 131.178)" fill="#222222"/>
<circle cx="205.294" cy="152.428" r="2" transform="rotate(15 205.294 152.428)" fill="#222222"/>
<circle cx="247.389" cy="72.6031" r="2" transform="rotate(15 247.389 72.6031)" fill="#222222"/>
<circle cx="241.694" cy="93.8534" r="2" transform="rotate(15 241.694 93.8534)" fill="#222222"/>
<circle cx="236.001" cy="115.104" r="2" transform="rotate(15 236.001 115.104)" fill="#222222"/>
<circle cx="230.306" cy="136.354" r="2" transform="rotate(15 230.306 136.354)" fill="#222222"/>
<circle cx="224.612" cy="157.605" r="2" transform="rotate(15 224.612 157.605)" fill="#222222"/>
<circle cx="266.707" cy="77.7794" r="2" transform="rotate(15 266.707 77.7794)" fill="#222222"/>
<circle cx="261.013" cy="99.0298" r="2" transform="rotate(15 261.013 99.0298)" fill="#222222"/>
<circle cx="255.319" cy="120.28" r="2" transform="rotate(15 255.319 120.28)" fill="#222222"/>
<circle cx="249.625" cy="141.531" r="2" transform="rotate(15 249.625 141.531)" fill="#222222"/>
<circle cx="243.931" cy="162.781" r="2" transform="rotate(15 243.931 162.781)" fill="#222222"/>
<circle cx="286.026" cy="82.9558" r="2" transform="rotate(15 286.026 82.9558)" fill="#222222"/>
<circle cx="280.332" cy="104.206" r="2" transform="rotate(15 280.332 104.206)" fill="#222222"/>
<circle cx="274.638" cy="125.457" r="2" transform="rotate(15 274.638 125.457)" fill="#222222"/>
<circle cx="268.944" cy="146.707" r="2" transform="rotate(15 268.944 146.707)" fill="#222222"/>
<circle cx="263.249" cy="167.957" r="2" transform="rotate(15 263.249 167.957)" fill="#222222"/>
<circle cx="47.3911" cy="7.62588" r="2" transform="rotate(15 47.3911 7.62588)" fill="#222222"/>
<circle cx="41.6971" cy="28.8762" r="2" transform="rotate(15 41.6971 28.8762)" fill="#222222"/>
<circle cx="36.0031" cy="50.1266" r="2" transform="rotate(15 36.0031 50.1266)" fill="#222222"/>
<circle cx="30.309" cy="71.377" r="2" transform="rotate(15 30.309 71.377)" fill="#222222"/>
<circle cx="24.615" cy="92.6273" r="2" transform="rotate(15 24.615 92.6273)" fill="#222222"/>
<circle cx="66.7096" cy="12.8023" r="2" transform="rotate(15 66.7096 12.8023)" fill="#222222"/>
<circle cx="61.0156" cy="34.0526" r="2" transform="rotate(15 61.0156 34.0526)" fill="#222222"/>
<circle cx="55.3216" cy="55.303" r="2" transform="rotate(15 55.3216 55.303)" fill="#222222"/>
<circle cx="49.6276" cy="76.5534" r="2" transform="rotate(15 49.6276 76.5534)" fill="#222222"/>
<circle cx="43.9336" cy="97.8037" r="2" transform="rotate(15 43.9336 97.8037)" fill="#222222"/>
<circle cx="86.0282" cy="17.9787" r="2" transform="rotate(15 86.0282 17.9787)" fill="#222222"/>
<circle cx="80.3341" cy="39.229" r="2" transform="rotate(15 80.3341 39.229)" fill="#222222"/>
<circle cx="74.6401" cy="60.4794" r="2" transform="rotate(15 74.6401 60.4794)" fill="#222222"/>
<circle cx="68.9461" cy="81.7298" r="2" transform="rotate(15 68.9461 81.7298)" fill="#222222"/>
<circle cx="63.252" cy="102.98" r="2" transform="rotate(15 63.252 102.98)" fill="#222222"/>
<circle cx="105.347" cy="23.1551" r="2" transform="rotate(15 105.347 23.1551)" fill="#222222"/>
<circle cx="99.6526" cy="44.4054" r="2" transform="rotate(15 99.6526 44.4054)" fill="#222222"/>
<circle cx="93.9586" cy="65.6558" r="2" transform="rotate(15 93.9586 65.6558)" fill="#222222"/>
<circle cx="88.2646" cy="86.9062" r="2" transform="rotate(15 88.2646 86.9062)" fill="#222222"/>
<circle cx="82.5706" cy="108.157" r="2" transform="rotate(15 82.5706 108.157)" fill="#222222"/>
<circle cx="124.665" cy="28.3314" r="2" transform="rotate(15 124.665 28.3314)" fill="#222222"/>
<circle cx="118.971" cy="49.5818" r="2" transform="rotate(15 118.971 49.5818)" fill="#222222"/>
<circle cx="113.277" cy="70.8322" r="2" transform="rotate(15 113.277 70.8322)" fill="#222222"/>
<circle cx="107.583" cy="92.0826" r="2" transform="rotate(15 107.583 92.0826)" fill="#222222"/>
<circle cx="101.889" cy="113.333" r="2" transform="rotate(15 101.889 113.333)" fill="#222222"/>
<circle cx="143.984" cy="33.5077" r="2" transform="rotate(15 143.984 33.5077)" fill="#222222"/>
<circle cx="138.29" cy="54.7581" r="2" transform="rotate(15 138.29 54.7581)" fill="#222222"/>
<circle cx="132.596" cy="76.0086" r="2" transform="rotate(15 132.596 76.0086)" fill="#222222"/>
<circle cx="126.902" cy="97.2589" r="2" transform="rotate(15 126.902 97.2589)" fill="#222222"/>
<circle cx="121.208" cy="118.509" r="2" transform="rotate(15 121.208 118.509)" fill="#222222"/>
<circle cx="163.302" cy="38.6841" r="2" transform="rotate(15 163.302 38.6841)" fill="#222222"/>
<circle cx="157.608" cy="59.9345" r="2" transform="rotate(15 157.608 59.9345)" fill="#222222"/>
<circle cx="151.914" cy="81.1848" r="2" transform="rotate(15 151.914 81.1848)" fill="#222222"/>
<circle cx="146.22" cy="102.435" r="2" transform="rotate(15 146.22 102.435)" fill="#222222"/>
<circle cx="140.526" cy="123.686" r="2" transform="rotate(15 140.526 123.686)" fill="#222222"/>
<circle cx="182.621" cy="43.8605" r="2" transform="rotate(15 182.621 43.8605)" fill="#222222"/>
<circle cx="176.927" cy="65.1109" r="2" transform="rotate(15 176.927 65.1109)" fill="#222222"/>
<circle cx="171.233" cy="86.3612" r="2" transform="rotate(15 171.233 86.3612)" fill="#222222"/>
<circle cx="165.539" cy="107.612" r="2" transform="rotate(15 165.539 107.612)" fill="#222222"/>
<circle cx="159.845" cy="128.862" r="2" transform="rotate(15 159.845 128.862)" fill="#222222"/>
<circle cx="201.939" cy="49.0369" r="2" transform="rotate(15 201.939 49.0369)" fill="#222222"/>
<circle cx="196.245" cy="70.2873" r="2" transform="rotate(15 196.245 70.2873)" fill="#222222"/>
<circle cx="190.551" cy="91.5376" r="2" transform="rotate(15 190.551 91.5376)" fill="#222222"/>
<circle cx="184.857" cy="112.788" r="2" transform="rotate(15 184.857 112.788)" fill="#222222"/>
<circle cx="179.163" cy="134.038" r="2" transform="rotate(15 179.163 134.038)" fill="#222222"/>
<circle cx="221.258" cy="54.2133" r="2" transform="rotate(15 221.258 54.2133)" fill="#222222"/>
<circle cx="215.564" cy="75.4637" r="2" transform="rotate(15 215.564 75.4637)" fill="#222222"/>
<circle cx="209.87" cy="96.714" r="2" transform="rotate(15 209.87 96.714)" fill="#222222"/>
<circle cx="204.176" cy="117.964" r="2" transform="rotate(15 204.176 117.964)" fill="#222222"/>
<circle cx="198.482" cy="139.215" r="2" transform="rotate(15 198.482 139.215)" fill="#222222"/>
<circle cx="240.576" cy="59.3897" r="2" transform="rotate(15 240.576 59.3897)" fill="#222222"/>
<circle cx="234.882" cy="80.64" r="2" transform="rotate(15 234.882 80.64)" fill="#222222"/>
<circle cx="229.188" cy="101.89" r="2" transform="rotate(15 229.188 101.89)" fill="#222222"/>
<circle cx="223.494" cy="123.141" r="2" transform="rotate(15 223.494 123.141)" fill="#222222"/>
<circle cx="217.8" cy="144.391" r="2" transform="rotate(15 217.8 144.391)" fill="#222222"/>
<circle cx="259.895" cy="64.5661" r="2" transform="rotate(15 259.895 64.5661)" fill="#222222"/>
<circle cx="254.201" cy="85.8164" r="2" transform="rotate(15 254.201 85.8164)" fill="#222222"/>
<circle cx="248.507" cy="107.067" r="2" transform="rotate(15 248.507 107.067)" fill="#222222"/>
<circle cx="242.813" cy="128.317" r="2" transform="rotate(15 242.813 128.317)" fill="#222222"/>
<circle cx="237.119" cy="149.568" r="2" transform="rotate(15 237.119 149.568)" fill="#222222"/>
<circle cx="279.213" cy="69.7425" r="2" transform="rotate(15 279.213 69.7425)" fill="#222222"/>
<circle cx="273.519" cy="90.9928" r="2" transform="rotate(15 273.519 90.9928)" fill="#222222"/>
<circle cx="267.825" cy="112.243" r="2" transform="rotate(15 267.825 112.243)" fill="#222222"/>
<circle cx="262.131" cy="133.494" r="2" transform="rotate(15 262.131 133.494)" fill="#222222"/>
<circle cx="256.437" cy="154.744" r="2" transform="rotate(15 256.437 154.744)" fill="#222222"/>
<circle cx="298.532" cy="74.9189" r="2" transform="rotate(15 298.532 74.9189)" fill="#222222"/>
<circle cx="292.838" cy="96.1692" r="2" transform="rotate(15 292.838 96.1692)" fill="#222222"/>
<circle cx="287.144" cy="117.42" r="2" transform="rotate(15 287.144 117.42)" fill="#222222"/>
<circle cx="281.45" cy="138.67" r="2" transform="rotate(15 281.45 138.67)" fill="#222222"/>
<circle cx="275.756" cy="159.92" r="2" transform="rotate(15 275.756 159.92)" fill="#222222"/>
</svg>
