<svg width="24" height="18" viewBox="0 0 24 18" fill="none" xmlns="http://www.w3.org/2000/svg">
<path d="M21.06 1.5025C22.3475 2.87 23.0388 4.40375 23.0388 6.89C23.0388 11.265 19.9675 15.1863 15.5013 17.125L14.385 15.4025C18.5538 13.1475 19.3688 10.2213 19.6938 8.37625C19.0225 8.72375 18.1438 8.845 17.2825 8.765C15.0275 8.55625 13.25 6.705 13.25 4.40375C13.25 3.24343 13.7109 2.13063 14.5314 1.31016C15.3519 0.489686 16.4647 0.0287505 17.625 0.0287504C18.9663 0.0287503 20.2488 0.641251 21.06 1.5025V1.5025ZM8.56001 1.5025C9.84751 2.87 10.5388 4.40375 10.5388 6.89C10.5388 11.265 7.46751 15.1863 3.00126 17.125L1.88501 15.4025C6.05376 13.1475 6.86876 10.2213 7.19376 8.37625C6.52251 8.72375 5.64376 8.845 4.78251 8.765C2.52751 8.55625 0.750007 6.705 0.750007 4.40375C0.750007 3.24343 1.21094 2.13063 2.03141 1.31016C2.85189 0.489687 3.96468 0.0287516 5.12501 0.0287515C6.46626 0.0287514 7.74876 0.641252 8.56001 1.5025V1.5025Z" fill="#381DDB"/>
</svg>
