<svg width="40" height="40" viewBox="0 0 40 40" fill="none" xmlns="http://www.w3.org/2000/svg">
<g clip-path="url(#clip0_1_282)">
<path d="M39.4889 12.2983L27.7021 0.511381C27.2208 0.0299753 26.5032 -0.127056 25.8644 0.10896C25.2258 0.345131 24.7831 0.931537 24.7309 1.61044L23.7982 13.7365L17.7896 19.7451L16.0756 18.0311C15.3948 17.3504 14.2908 17.3504 13.61 18.0311C12.9291 18.7119 12.9291 19.8159 13.61 20.4968L15.3238 22.2106L11.8962 25.6384L10.1823 23.9246C9.50171 23.2436 8.39773 23.2438 7.71671 23.9246C7.03586 24.6054 7.03586 25.7092 7.71671 26.3902L9.43054 28.1042L3.21649 34.3182L2.97602 34.0778C2.29524 33.397 1.19126 33.397 0.510399 34.0778C-0.170459 34.7585 -0.170459 35.8625 0.510399 36.5434L1.98376 38.0167L3.45711 39.4901C3.79758 39.8305 4.24375 40.0007 4.68984 40.0007C5.13609 40.0007 5.58226 39.8303 5.92258 39.49C6.60343 38.8092 6.60343 37.7053 5.92258 37.0244L5.68211 36.7839L9.31593 33.1501C9.60859 33.9215 10.0625 34.6295 10.6634 35.2304C11.7798 36.3467 13.2642 36.9616 14.8429 36.9616C16.4217 36.9616 17.906 36.3467 19.0222 35.2304L24.9161 29.3369C27.2204 27.0323 27.2204 23.2823 24.9158 20.9777C24.3149 20.377 23.6068 19.9232 22.8355 19.6304L26.2638 16.2022L38.3899 15.2695C39.0688 15.2173 39.6552 14.7746 39.8913 14.136C40.1276 13.4973 39.9705 12.7798 39.4889 12.2983ZM22.4504 26.8713L16.5566 32.7646C16.0989 33.2225 15.4903 33.4746 14.843 33.4746C14.1956 33.4746 13.5868 33.2225 13.129 32.7646C12.6713 32.3069 12.4192 31.6983 12.4192 31.0509C12.4192 30.4035 12.6713 29.7948 13.129 29.3371L19.0247 23.4414C19.4823 22.9851 20.09 22.7337 20.7364 22.7337C21.3839 22.7337 21.9929 22.9858 22.4506 23.4434C23.3953 24.3886 23.3953 25.9263 22.4504 26.8713Z" fill="currentColor"/>
</g>
<defs>
<clipPath id="clip0_1_282">
<rect width="40" height="40" fill="currentColor"/>
</clipPath>
</defs>
</svg>
