<svg width="22" height="16" viewBox="0 0 22 16" fill="none" xmlns="http://www.w3.org/2000/svg">
<path d="M15 -3.05176e-05C15.2652 -3.05176e-05 15.5196 0.105327 15.7071 0.292863C15.8946 0.480399 16 0.734753 16 0.999969V5.19997L21.213 1.54997C21.288 1.49743 21.3759 1.46647 21.4672 1.46047C21.5586 1.45447 21.6498 1.47367 21.731 1.51596C21.8122 1.55826 21.8802 1.62203 21.9276 1.70032C21.9751 1.77862 22.0001 1.86843 22 1.95997V14.04C22.0001 14.1315 21.9751 14.2213 21.9276 14.2996C21.8802 14.3779 21.8122 14.4417 21.731 14.484C21.6498 14.5263 21.5586 14.5455 21.4672 14.5395C21.3759 14.5335 21.288 14.5025 21.213 14.45L16 10.8V15C16 15.2652 15.8946 15.5195 15.7071 15.7071C15.5196 15.8946 15.2652 16 15 16H1C0.734784 16 0.48043 15.8946 0.292893 15.7071C0.105357 15.5195 0 15.2652 0 15V0.999969C0 0.734753 0.105357 0.480399 0.292893 0.292863C0.48043 0.105327 0.734784 -3.05176e-05 1 -3.05176e-05H15ZM14 1.99997H2V14H14V1.99997ZM6.4 4.82897C6.47611 4.82876 6.55069 4.85027 6.615 4.89097L10.97 7.66297C11.0266 7.69914 11.0731 7.74897 11.1054 7.80786C11.1376 7.86676 11.1545 7.93282 11.1545 7.99997C11.1545 8.06711 11.1376 8.13318 11.1054 8.19207C11.0731 8.25097 11.0266 8.3008 10.97 8.33697L6.615 11.11C6.55434 11.1486 6.48438 11.1702 6.41248 11.1725C6.34059 11.1747 6.26941 11.1575 6.20646 11.1227C6.14351 11.0879 6.0911 11.0368 6.05477 10.9747C6.01844 10.9126 5.99951 10.8419 6 10.77V5.22997C6 5.00897 6.18 4.82997 6.4 4.82997V4.82897ZM20 4.83997L16 7.63997V8.35797L20 11.158V4.83997Z" fill="#FC5252"/>
</svg>
