<svg width="24" height="18" viewBox="0 0 24 18" fill="none" xmlns="http://www.w3.org/2000/svg">
<path d="M2.72875 15.6513C1.44125 14.2838 0.75 12.7501 0.75 10.2638C0.75 5.88881 3.82125 1.96756 8.2875 0.0288086L9.40375 1.75131C5.235 4.00631 4.42 6.93256 4.095 8.77756C4.76625 8.43006 5.645 8.30881 6.50625 8.38881C8.76125 8.59756 10.5388 10.4488 10.5388 12.7501C10.5388 13.9104 10.0778 15.0232 9.25734 15.8437C8.43687 16.6641 7.32407 17.1251 6.16375 17.1251C4.8225 17.1251 3.54 16.5126 2.72875 15.6513V15.6513ZM15.2288 15.6513C13.9413 14.2838 13.25 12.7501 13.25 10.2638C13.25 5.88881 16.3213 1.96756 20.7875 0.0288086L21.9038 1.75131C17.735 4.00631 16.92 6.93256 16.595 8.77756C17.2662 8.43006 18.145 8.30881 19.0062 8.38881C21.2612 8.59756 23.0387 10.4488 23.0387 12.7501C23.0387 13.9104 22.5778 15.0232 21.7573 15.8437C20.9369 16.6641 19.8241 17.1251 18.6637 17.1251C17.3225 17.1251 16.04 16.5126 15.2288 15.6513V15.6513Z" fill="#381DDB"/>
</svg>
