<svg width="40" height="40" viewBox="0 0 40 40" fill="none" xmlns="http://www.w3.org/2000/svg">
<path d="M36.4844 6.52686H3.51562C1.57711 6.52686 0 8.10397 0 10.0425V29.9576C0 31.8961 1.57711 33.4732 3.51562 33.4732H36.4844C38.4229 33.4732 40 31.8961 40 29.9576V10.0425C40 8.10397 38.4229 6.52686 36.4844 6.52686ZM13.4672 28.9463C8.53422 28.9463 4.52094 24.933 4.52094 20.0001C4.52094 15.0671 8.53422 11.0538 13.4672 11.0538C18.4002 11.0538 22.4134 15.0671 22.4134 20.0001C22.4134 24.933 18.4002 28.9463 13.4672 28.9463ZM26.9423 16.6665V26.6208C26.9423 27.268 26.4176 27.7927 25.7704 27.7927C25.1232 27.7927 24.5985 27.268 24.5985 26.6208V16.6665C24.1775 16.4888 23.882 16.0722 23.882 15.5865C23.882 15.1008 24.1775 14.6841 24.5985 14.5064V13.6382C24.5985 12.991 25.1232 12.4663 25.7704 12.4663C26.4176 12.4663 26.9423 12.991 26.9423 13.6382V14.5064C27.3634 14.6841 27.6589 15.1008 27.6589 15.5865C27.6589 16.0722 27.3634 16.4888 26.9423 16.6665ZM31.197 25.1814V26.6208C31.197 27.268 30.6723 27.7926 30.0252 27.7926C29.378 27.7926 28.8533 27.268 28.8533 26.6208V25.1814C28.4323 25.0037 28.1366 24.5871 28.1366 24.1013C28.1366 23.6156 28.4322 23.1989 28.8533 23.0212V13.6382C28.8533 12.991 29.378 12.4663 30.0252 12.4663C30.6723 12.4663 31.197 12.991 31.197 13.6382V23.0213C31.6181 23.199 31.9137 23.6157 31.9137 24.1014C31.9137 24.5871 31.6181 25.0037 31.197 25.1814ZM35.4518 16.6665V26.6208C35.4518 27.268 34.9271 27.7927 34.2799 27.7927C33.6327 27.7927 33.108 27.268 33.108 26.6208V16.6665C32.687 16.4889 32.3914 16.0722 32.3914 15.5865C32.3914 15.1008 32.687 14.684 33.108 14.5064V13.6382C33.108 12.991 33.6327 12.4663 34.2799 12.4663C34.9271 12.4663 35.4518 12.991 35.4518 13.6382V14.5064C35.8729 14.6841 36.1684 15.1008 36.1684 15.5865C36.1684 16.0722 35.8729 16.4888 35.4518 16.6665Z" fill="currentColor"/>
<path d="M13.4675 16.6177C11.6025 16.6177 10.0852 18.1349 10.0852 19.9999C10.0852 21.8649 11.6025 23.3822 13.4675 23.3822C15.3325 23.3822 16.8497 21.8649 16.8497 19.9999C16.8497 18.1349 15.3325 16.6177 13.4675 16.6177ZM13.4675 21.0385C12.8948 21.0385 12.429 20.5726 12.429 19.9999C12.429 19.4273 12.8948 18.9614 13.4675 18.9614C14.0401 18.9614 14.506 19.4273 14.506 19.9999C14.506 20.5726 14.0401 21.0385 13.4675 21.0385Z" fill="currentColor"/>
</svg>
