<svg width="40" height="40" viewBox="0 0 40 40" fill="none" xmlns="http://www.w3.org/2000/svg">
<g clip-path="url(#clip0_1_275)">
<path d="M23.8837 12.7817L25.5208 11.1446L28.9021 14.526L27.265 16.1631L23.8837 12.7817Z" fill="currentColor"/>
<path d="M20.6094 16.0559L22.2465 14.4188L25.6278 17.8002L23.9907 19.4373L20.6094 16.0559Z" fill="currentColor"/>
<path d="M29.4627 5.18964C29.2755 5.2787 29.1922 5.4976 29.273 5.68792L29.2882 5.72378L29.6809 6.99174C29.6599 7.01065 29.6389 7.02948 29.6185 7.04979L27.1625 9.50573L30.5444 12.8875L33.0004 10.4316C33.0279 10.4041 33.054 10.3759 33.0789 10.3472L34.3483 10.7404C34.5301 10.7967 34.729 10.7096 34.8108 10.5376C36.4044 7.1894 39.6354 5.63643 39.7768 5.56987C39.8713 5.52604 39.9451 5.4444 39.9792 5.34581C40.0133 5.24737 40.0057 5.1376 39.9585 5.04471L38.3317 1.84659C38.3133 1.81034 38.2893 1.77737 38.2605 1.74862C38.2317 1.71987 38.1987 1.69588 38.1626 1.67753L35.0099 0.0738536L34.983 0.0572911C34.9024 0.00760357 34.8066 -0.0105995 34.7132 0.00596295C34.5891 0.0279942 34.4835 0.1094 34.4305 0.223775C34.415 0.257213 32.8435 3.58057 29.4627 5.18964Z" fill="currentColor"/>
<path d="M20.8806 30.2373C20.837 29.5352 21.2889 28.908 21.9552 28.746C23.1294 28.4604 24.2016 27.8536 25.0559 26.9912C25.6633 26.378 26.1358 25.6623 26.4605 24.864C26.6362 24.4322 26.5355 23.9379 26.2068 23.6093C26.2018 23.6043 26.1967 23.5993 26.1916 23.5944C25.8509 23.2659 25.3446 23.1779 24.913 23.3721C23.7361 23.9015 22.1472 23.6119 20.7477 22.6839L22.3574 21.0742L18.9756 17.6924L17.956 18.7119C17.7317 17.5912 17.9318 16.5384 18.6132 15.857C18.8091 15.6611 19.0395 15.5004 19.298 15.3792C19.7457 15.1694 20.0107 14.6984 19.9577 14.2067C19.9047 13.7151 19.5452 13.3114 19.0631 13.2019C16.8543 12.7002 14.5827 13.3463 12.9863 14.9302C12.1221 15.7877 11.5154 16.8639 11.232 18.0425C11.0719 18.7079 10.4449 19.1604 9.74118 19.1183C7.0654 18.9582 4.45126 19.946 2.56892 21.8284C-0.85655 25.2539 -0.85655 30.8275 2.56892 34.2529L5.74712 37.431C9.17259 40.8565 14.7462 40.8565 18.1717 37.431C20.0599 35.5427 21.0472 32.9208 20.8806 30.2373ZM11.8376 30.6026L9.39743 28.1625C8.94532 27.7104 8.94532 26.9773 9.39743 26.5251C9.84954 26.073 10.5826 26.073 11.0348 26.5251L13.4749 28.9653C13.927 29.4174 13.927 30.1504 13.4749 30.6026C13.0227 31.0547 12.2897 31.0547 11.8376 30.6026ZM15.4978 26.9424L13.0577 24.5022C12.6056 24.0501 12.6056 23.3171 13.0577 22.8649C13.5098 22.4128 14.2428 22.4128 14.695 22.8649L17.1352 25.305C17.5873 25.7572 17.5873 26.4902 17.1352 26.9424C16.6831 27.3945 15.9499 27.3945 15.4978 26.9424Z" fill="currentColor"/>
</g>
<defs>
<clipPath id="clip0_1_275">
<rect width="40" height="40" fill="currentColor"/>
</clipPath>
</defs>
</svg>
