<svg width="26" height="22" viewBox="0 0 26 22" fill="none" xmlns="http://www.w3.org/2000/svg">
<path d="M25.7025 3.07015C24.7482 3.49227 23.7362 3.76949 22.7 3.89265C23.7922 3.23944 24.6096 2.21142 25 1.00015C23.975 1.61015 22.8513 2.03765 21.68 2.2689C20.8933 1.42713 19.8505 0.868856 18.7137 0.680883C17.5769 0.49291 16.4099 0.685766 15.3941 1.22947C14.3782 1.77317 13.5705 2.63726 13.0964 3.68739C12.6223 4.73753 12.5084 5.91488 12.7725 7.0364C10.6939 6.93222 8.66042 6.39206 6.80411 5.45098C4.94781 4.50991 3.31016 3.18896 1.9975 1.5739C1.53287 2.37197 1.2887 3.27919 1.29 4.20265C1.29 6.01515 2.2125 7.6164 3.615 8.5539C2.78502 8.52777 1.9733 8.30363 1.2475 7.90015V7.96515C1.24776 9.17228 1.66547 10.3422 2.42981 11.2765C3.19416 12.2108 4.25811 12.852 5.44125 13.0914C4.67077 13.3002 3.86289 13.331 3.07875 13.1814C3.41234 14.2204 4.06251 15.1292 4.93824 15.7803C5.81398 16.4314 6.87141 16.7924 7.9625 16.8127C6.87811 17.6643 5.63648 18.2939 4.30861 18.6654C2.98073 19.0369 1.59266 19.143 0.223755 18.9777C2.61338 20.5144 5.39513 21.3303 8.23625 21.3277C17.8525 21.3277 23.1113 13.3614 23.1113 6.45265C23.1113 6.22765 23.105 6.00015 23.095 5.77765C24.1186 5.03786 25.002 4.12143 25.7038 3.0714L25.7025 3.07015Z" fill="white"/>
</svg>
