<svg width="48" height="48" viewBox="0 0 48 48" fill="none" xmlns="http://www.w3.org/2000/svg">
<path d="M24 47.3334C11.113 47.3334 0.666667 36.8871 0.666667 24.0001C0.666667 11.1131 11.113 0.666748 24 0.666748C36.887 0.666748 47.3333 11.1131 47.3333 24.0001C47.3333 36.8871 36.887 47.3334 24 47.3334ZM24 42.6667C28.9507 42.6667 33.6986 40.7001 37.1993 37.1994C40.7 33.6987 42.6667 28.9508 42.6667 24.0001C42.6667 19.0494 40.7 14.3014 37.1993 10.8008C33.6986 7.30008 28.9507 5.33341 24 5.33341C19.0493 5.33341 14.3014 7.30008 10.8007 10.8008C7.29999 14.3014 5.33333 19.0494 5.33333 24.0001C5.33333 28.9508 7.29999 33.6987 10.8007 37.1994C14.3014 40.7001 19.0493 42.6667 24 42.6667V42.6667ZM20.7847 15.6351L32.169 23.2231C32.297 23.3083 32.402 23.4238 32.4746 23.5593C32.5472 23.6949 32.5852 23.8463 32.5852 24.0001C32.5852 24.1539 32.5472 24.3053 32.4746 24.4408C32.402 24.5764 32.297 24.6919 32.169 24.7771L20.7823 32.3651C20.6419 32.4581 20.479 32.5115 20.3107 32.5194C20.1424 32.5274 19.9752 32.4896 19.8266 32.4102C19.6781 32.3308 19.5538 32.2127 19.4669 32.0683C19.3801 31.924 19.3339 31.7589 19.3333 31.5904V16.4097C19.3336 16.2409 19.3797 16.0754 19.4667 15.9307C19.5537 15.786 19.6782 15.6676 19.8272 15.5881C19.9761 15.5086 20.1438 15.471 20.3124 15.4793C20.481 15.4875 20.6442 15.5414 20.7847 15.6351V15.6351Z" fill="currentColor"/>
</svg>
