<svg width="111" height="191" viewBox="0 0 111 191" fill="none" xmlns="http://www.w3.org/2000/svg">
<path d="M101.518 175.75L78.0296 177.668L76.4615 154.154L52.9735 156.072L51.4054 132.558L27.9174 134.476L26.3493 110.962L2.86125 112.879" stroke="#FC5252" stroke-width="8"/>
<path fill-rule="evenodd" clip-rule="evenodd" d="M104.861 175.75L104.21 167.777L84.7688 169.364L83.2007 145.85L59.7127 147.768L58.1446 124.254L34.6566 126.172L33.0885 102.658L5.55393 104.907L6.20501 112.88L25.6465 111.293L27.2146 134.807L50.7026 132.889L52.2707 156.403L75.7588 154.485L77.3268 177.999L104.861 175.75Z" stroke="#FC5252"/>
<path d="M14.5876 9.56024L14.1778 33.1229L37.744 33.1818L37.3343 56.7445L60.9004 56.8034L60.4907 80.3661L84.0569 80.4249L83.6471 103.988" stroke="#381DDB" stroke-width="8"/>
<path fill-rule="evenodd" clip-rule="evenodd" d="M14.3731 6.22312L22.3718 6.36221L22.0327 25.8655L45.5989 25.9244L45.1891 49.4871L68.7553 49.546L68.3456 73.1086L91.9117 73.1675L91.4314 100.79L83.4326 100.65L83.7718 81.1472L60.2056 81.0883L60.6153 57.5256L37.0492 57.4668L37.4589 33.9041L13.8927 33.8452L14.3731 6.22312Z" stroke="#381DDB"/>
</svg>
